<?xml version="1.0" encoding="UTF-8"?>
<svg viewBox="0 0 68 48" version="1.1" xmlns="http://www.w3.org/2000/svg" xmlns:xlink="http://www.w3.org/1999/xlink">
    <!-- Generator: Sketch 58 (84663) - https://sketch.com -->
    <title>menu</title>
    <desc>Created with Sketch.</desc>
    <g id="Page-1" stroke="none" stroke-width="1" fill="none" fill-rule="evenodd">
        <g id="menu" fill="#50ACC4" fill-rule="nonzero">
            <path d="M63.8,39.2 L4.2,39.2 C1.9,39.2 0,41.1 0,43.4 C0,45.7 1.9,47.6 4.2,47.6 L63.8,47.6 C66.1,47.6 68,45.7 68,43.4 C68,41.1 66.1,39.2 63.8,39.2 Z M43.8,19.8 C46.1,19.8 48,21.7 48,24 C48,26.3 46.1,28.2 43.8,28.2 L43.8,28.2 L4.2,28.2 C1.9,28.2 0,26.3 0,24 C0,21.7 1.9,19.8 4.2,19.8 L4.2,19.8 Z M63.8,0.4 C66.1,0.4 68,2.3 68,4.6 C68,6.9 66.1,8.8 63.8,8.8 L63.8,8.8 L4.2,8.8 C1.9,8.8 0,6.9 0,4.6 C0,2.3 1.9,0.4 4.2,0.4 L4.2,0.4 Z" id="Shape"></path>
        </g>
    </g>
</svg>
